solid ASCII
  facet normal -7.071068e-01 -9.135083e-16 7.071068e-01
    outer loop
      vertex   3.500000e+01 4.995000e+01 4.600000e+00
      vertex   3.520000e+01 4.995000e+01 4.800000e+00
      vertex   3.500000e+01 5.545000e+01 4.600000e+00
    endloop
  endfacet
  facet normal -7.071068e-01 -9.144004e-16 7.071068e-01
    outer loop
      vertex   3.500000e+01 5.545000e+01 4.600000e+00
      vertex   3.520000e+01 4.995000e+01 4.800000e+00
      vertex   3.520000e+01 5.545000e+01 4.800000e+00
    endloop
  endfacet
  facet normal -1.000000e+00 -1.291896e-15 -0.000000e+00
    outer loop
      vertex   3.500000e+01 4.995000e+01 4.600000e+00
      vertex   3.500000e+01 5.545000e+01 4.600000e+00
      vertex   3.500000e+01 4.995000e+01 3.200000e+00
    endloop
  endfacet
  facet normal -1.000000e+00 -1.291896e-15 0.000000e+00
    outer loop
      vertex   3.500000e+01 4.995000e+01 3.200000e+00
      vertex   3.500000e+01 5.545000e+01 4.600000e+00
      vertex   3.500000e+01 5.545000e+01 3.200000e+00
    endloop
  endfacet
  facet normal -1.000000e+00 -1.291896e-15 -6.180914e-14
    outer loop
      vertex   3.500000e+01 4.995000e+01 3.200000e+00
      vertex   3.500000e+01 5.545000e+01 3.200000e+00
      vertex   3.500000e+01 6.600000e+01 1.600000e+00
    endloop
  endfacet
  facet normal -1.000000e+00 8.082003e-15 0.000000e+00
    outer loop
      vertex   3.500000e+01 6.600000e+01 1.600000e+00
      vertex   3.500000e+01 5.545000e+01 3.200000e+00
      vertex   3.500000e+01 6.600000e+01 3.200000e+00
    endloop
  endfacet
  facet normal -1.000000e+00 -0.000000e+00 -4.884981e-14
    outer loop
      vertex   3.500000e+01 6.600000e+01 1.600000e+00
      vertex   3.500000e+01 -1.600000e+00 1.600000e+00
      vertex   3.500000e+01 4.995000e+01 3.200000e+00
    endloop
  endfacet
  facet normal -1.000000e+00 -1.516192e-15 0.000000e+00
    outer loop
      vertex   3.500000e+01 4.995000e+01 3.200000e+00
      vertex   3.500000e+01 -1.600000e+00 1.600000e+00
      vertex   3.500000e+01 -1.600000e+00 3.200000e+00
    endloop
  endfacet
  facet normal 0.000000e+00 1.000000e+00 0.000000e+00
    outer loop
      vertex   3.500000e+01 5.545000e+01 3.200000e+00
      vertex   3.500000e+01 5.545000e+01 4.600000e+00
      vertex   3.675000e+01 5.545000e+01 3.200000e+00
    endloop
  endfacet
  facet normal 0.000000e+00 1.000000e+00 0.000000e+00
    outer loop
      vertex   3.675000e+01 5.545000e+01 3.200000e+00
      vertex   3.500000e+01 5.545000e+01 4.600000e+00
      vertex   3.520000e+01 5.545000e+01 4.800000e+00
    endloop
  endfacet
  facet normal 0.000000e+00 1.000000e+00 -0.000000e+00
    outer loop
      vertex   3.675000e+01 5.545000e+01 3.200000e+00
      vertex   3.520000e+01 5.545000e+01 4.800000e+00
      vertex   3.675000e+01 5.545000e+01 4.800000e+00
    endloop
  endfacet
  facet normal 1.000000e+00 0.000000e+00 0.000000e+00
    outer loop
      vertex   7.745000e+01 4.100000e+01 3.200000e+00
      vertex   7.745000e+01 4.995000e+01 3.200000e+00
      vertex   7.745000e+01 4.100000e+01 4.800000e+00
    endloop
  endfacet
  facet normal 1.000000e+00 -0.000000e+00 0.000000e+00
    outer loop
      vertex   7.745000e+01 4.100000e+01 4.800000e+00
      vertex   7.745000e+01 4.995000e+01 3.200000e+00
      vertex   7.745000e+01 4.995000e+01 4.800000e+00
    endloop
  endfacet
  facet normal 0.000000e+00 -1.000000e+00 0.000000e+00
    outer loop
      vertex   7.665000e+01 4.100000e+01 3.200000e+00
      vertex   7.745000e+01 4.100000e+01 3.200000e+00
      vertex   7.665000e+01 4.100000e+01 4.800000e+00
    endloop
  endfacet
  facet normal 0.000000e+00 -1.000000e+00 0.000000e+00
    outer loop
      vertex   7.665000e+01 4.100000e+01 4.800000e+00
      vertex   7.745000e+01 4.100000e+01 3.200000e+00
      vertex   7.745000e+01 4.100000e+01 4.800000e+00
    endloop
  endfacet
  facet normal -1.000000e+00 0.000000e+00 0.000000e+00
    outer loop
      vertex   7.665000e+01 6.425000e+01 3.200000e+00
      vertex   7.665000e+01 4.100000e+01 3.200000e+00
      vertex   7.665000e+01 6.425000e+01 4.800000e+00
    endloop
  endfacet
  facet normal -1.000000e+00 -0.000000e+00 0.000000e+00
    outer loop
      vertex   7.665000e+01 6.425000e+01 4.800000e+00
      vertex   7.665000e+01 4.100000e+01 3.200000e+00
      vertex   7.665000e+01 4.100000e+01 4.800000e+00
    endloop
  endfacet
  facet normal 0.000000e+00 -1.000000e+00 0.000000e+00
    outer loop
      vertex   3.755000e+01 6.425000e+01 3.200000e+00
      vertex   7.665000e+01 6.425000e+01 3.200000e+00
      vertex   3.755000e+01 6.425000e+01 4.800000e+00
    endloop
  endfacet
  facet normal 0.000000e+00 -1.000000e+00 0.000000e+00
    outer loop
      vertex   3.755000e+01 6.425000e+01 4.800000e+00
      vertex   7.665000e+01 6.425000e+01 3.200000e+00
      vertex   7.665000e+01 6.425000e+01 4.800000e+00
    endloop
  endfacet
  facet normal 1.000000e+00 0.000000e+00 0.000000e+00
    outer loop
      vertex   3.755000e+01 4.100000e+01 3.200000e+00
      vertex   3.755000e+01 6.425000e+01 3.200000e+00
      vertex   3.755000e+01 4.100000e+01 4.800000e+00
    endloop
  endfacet
  facet normal 1.000000e+00 -0.000000e+00 0.000000e+00
    outer loop
      vertex   3.755000e+01 4.100000e+01 4.800000e+00
      vertex   3.755000e+01 6.425000e+01 3.200000e+00
      vertex   3.755000e+01 6.425000e+01 4.800000e+00
    endloop
  endfacet
  facet normal 0.000000e+00 -1.000000e+00 0.000000e+00
    outer loop
      vertex   3.675000e+01 4.100000e+01 3.200000e+00
      vertex   3.755000e+01 4.100000e+01 3.200000e+00
      vertex   3.675000e+01 4.100000e+01 4.800000e+00
    endloop
  endfacet
  facet normal 0.000000e+00 -1.000000e+00 0.000000e+00
    outer loop
      vertex   3.675000e+01 4.100000e+01 4.800000e+00
      vertex   3.755000e+01 4.100000e+01 3.200000e+00
      vertex   3.755000e+01 4.100000e+01 4.800000e+00
    endloop
  endfacet
  facet normal -1.000000e+00 0.000000e+00 0.000000e+00
    outer loop
      vertex   3.675000e+01 4.995000e+01 3.200000e+00
      vertex   3.675000e+01 4.100000e+01 3.200000e+00
      vertex   3.675000e+01 4.995000e+01 4.800000e+00
    endloop
  endfacet
  facet normal -1.000000e+00 -0.000000e+00 0.000000e+00
    outer loop
      vertex   3.675000e+01 4.995000e+01 4.800000e+00
      vertex   3.675000e+01 4.100000e+01 3.200000e+00
      vertex   3.675000e+01 4.100000e+01 4.800000e+00
    endloop
  endfacet
  facet normal -0.000000e+00 -1.000000e+00 -0.000000e+00
    outer loop
      vertex   3.675000e+01 4.995000e+01 4.800000e+00
      vertex   3.520000e+01 4.995000e+01 4.800000e+00
      vertex   3.675000e+01 4.995000e+01 3.200000e+00
    endloop
  endfacet
  facet normal 0.000000e+00 -1.000000e+00 0.000000e+00
    outer loop
      vertex   3.675000e+01 4.995000e+01 3.200000e+00
      vertex   3.520000e+01 4.995000e+01 4.800000e+00
      vertex   3.500000e+01 4.995000e+01 4.600000e+00
    endloop
  endfacet
  facet normal -0.000000e+00 -1.000000e+00 0.000000e+00
    outer loop
      vertex   3.675000e+01 4.995000e+01 3.200000e+00
      vertex   3.500000e+01 4.995000e+01 4.600000e+00
      vertex   3.500000e+01 4.995000e+01 3.200000e+00
    endloop
  endfacet
  facet normal -1.000000e+00 -6.735002e-16 0.000000e+00
    outer loop
      vertex   3.675000e+01 6.600000e+01 3.200000e+00
      vertex   3.675000e+01 5.545000e+01 3.200000e+00
      vertex   3.675000e+01 6.600000e+01 4.800000e+00
    endloop
  endfacet
  facet normal -1.000000e+00 -6.735002e-16 0.000000e+00
    outer loop
      vertex   3.675000e+01 6.600000e+01 4.800000e+00
      vertex   3.675000e+01 5.545000e+01 3.200000e+00
      vertex   3.675000e+01 5.545000e+01 4.800000e+00
    endloop
  endfacet
  facet normal 1.000000e+00 0.000000e+00 0.000000e+00
    outer loop
      vertex   7.745000e+01 5.545000e+01 3.200000e+00
      vertex   7.745000e+01 6.600000e+01 3.200000e+00
      vertex   7.745000e+01 5.545000e+01 4.800000e+00
    endloop
  endfacet
  facet normal 1.000000e+00 -0.000000e+00 0.000000e+00
    outer loop
      vertex   7.745000e+01 5.545000e+01 4.800000e+00
      vertex   7.745000e+01 6.600000e+01 3.200000e+00
      vertex   7.745000e+01 6.600000e+01 4.800000e+00
    endloop
  endfacet
  facet normal 0.000000e+00 1.000000e+00 -0.000000e+00
    outer loop
      vertex   7.920000e+01 5.545000e+01 3.200000e+00
      vertex   7.745000e+01 5.545000e+01 3.200000e+00
      vertex   7.920000e+01 5.545000e+01 4.800000e+00
    endloop
  endfacet
  facet normal 0.000000e+00 1.000000e+00 0.000000e+00
    outer loop
      vertex   7.920000e+01 5.545000e+01 4.800000e+00
      vertex   7.745000e+01 5.545000e+01 3.200000e+00
      vertex   7.745000e+01 5.545000e+01 4.800000e+00
    endloop
  endfacet
  facet normal 4.060244e-15 -1.000000e+00 0.000000e+00
    outer loop
      vertex   7.745000e+01 4.995000e+01 3.200000e+00
      vertex   7.920000e+01 4.995000e+01 3.200000e+00
      vertex   7.745000e+01 4.995000e+01 4.800000e+00
    endloop
  endfacet
  facet normal 4.060244e-15 -1.000000e+00 0.000000e+00
    outer loop
      vertex   7.745000e+01 4.995000e+01 4.800000e+00
      vertex   7.920000e+01 4.995000e+01 3.200000e+00
      vertex   7.920000e+01 4.995000e+01 4.800000e+00
    endloop
  endfacet
  facet normal 0.000000e+00 -0.000000e+00 1.000000e+00
    outer loop
      vertex   3.520000e+01 4.995000e+01 4.800000e+00
      vertex   3.675000e+01 4.995000e+01 4.800000e+00
      vertex   3.520000e+01 5.545000e+01 4.800000e+00
    endloop
  endfacet
  facet normal -0.000000e+00 0.000000e+00 1.000000e+00
    outer loop
      vertex   3.520000e+01 5.545000e+01 4.800000e+00
      vertex   3.675000e+01 4.995000e+01 4.800000e+00
      vertex   3.675000e+01 5.545000e+01 4.800000e+00
    endloop
  endfacet
  facet normal -1.110223e-15 0.000000e+00 1.000000e+00
    outer loop
      vertex   3.675000e+01 5.545000e+01 4.800000e+00
      vertex   3.675000e+01 4.995000e+01 4.800000e+00
      vertex   3.755000e+01 6.425000e+01 4.800000e+00
    endloop
  endfacet
  facet normal -1.110223e-15 -7.477355e-31 1.000000e+00
    outer loop
      vertex   3.675000e+01 5.545000e+01 4.800000e+00
      vertex   3.755000e+01 6.425000e+01 4.800000e+00
      vertex   3.675000e+01 6.600000e+01 4.800000e+00
    endloop
  endfacet
  facet normal -1.135778e-16 4.556092e-16 1.000000e+00
    outer loop
      vertex   3.675000e+01 6.600000e+01 4.800000e+00
      vertex   3.755000e+01 6.425000e+01 4.800000e+00
      vertex   7.665000e+01 6.425000e+01 4.800000e+00
    endloop
  endfacet
  facet normal -1.309354e-16 5.985618e-17 1.000000e+00
    outer loop
      vertex   3.675000e+01 6.600000e+01 4.800000e+00
      vertex   7.665000e+01 6.425000e+01 4.800000e+00
      vertex   7.745000e+01 6.600000e+01 4.800000e+00
    endloop
  endfacet
  facet normal 0.000000e+00 0.000000e+00 1.000000e+00
    outer loop
      vertex   7.745000e+01 6.600000e+01 4.800000e+00
      vertex   7.665000e+01 6.425000e+01 4.800000e+00
      vertex   7.745000e+01 5.545000e+01 4.800000e+00
    endloop
  endfacet
  facet normal 0.000000e+00 0.000000e+00 1.000000e+00
    outer loop
      vertex   7.745000e+01 5.545000e+01 4.800000e+00
      vertex   7.665000e+01 6.425000e+01 4.800000e+00
      vertex   7.745000e+01 4.995000e+01 4.800000e+00
    endloop
  endfacet
  facet normal 0.000000e+00 0.000000e+00 1.000000e+00
    outer loop
      vertex   7.745000e+01 5.545000e+01 4.800000e+00
      vertex   7.745000e+01 4.995000e+01 4.800000e+00
      vertex   7.920000e+01 4.995000e+01 4.800000e+00
    endloop
  endfacet
  facet normal -1.110223e-15 0.000000e+00 1.000000e+00
    outer loop
      vertex   3.675000e+01 4.100000e+01 4.800000e+00
      vertex   3.755000e+01 4.100000e+01 4.800000e+00
      vertex   3.675000e+01 4.995000e+01 4.800000e+00
    endloop
  endfacet
  facet normal -1.110223e-15 0.000000e+00 1.000000e+00
    outer loop
      vertex   3.675000e+01 4.995000e+01 4.800000e+00
      vertex   3.755000e+01 4.100000e+01 4.800000e+00
      vertex   3.755000e+01 6.425000e+01 4.800000e+00
    endloop
  endfacet
  facet normal 0.000000e+00 0.000000e+00 1.000000e+00
    outer loop
      vertex   7.665000e+01 6.425000e+01 4.800000e+00
      vertex   7.665000e+01 4.100000e+01 4.800000e+00
      vertex   7.745000e+01 4.995000e+01 4.800000e+00
    endloop
  endfacet
  facet normal 0.000000e+00 0.000000e+00 1.000000e+00
    outer loop
      vertex   7.745000e+01 4.995000e+01 4.800000e+00
      vertex   7.665000e+01 4.100000e+01 4.800000e+00
      vertex   7.745000e+01 4.100000e+01 4.800000e+00
    endloop
  endfacet
  facet normal 0.000000e+00 -0.000000e+00 1.000000e+00
    outer loop
      vertex   7.920000e+01 4.995000e+01 4.800000e+00
      vertex   7.920000e+01 5.545000e+01 4.800000e+00
      vertex   7.745000e+01 5.545000e+01 4.800000e+00
    endloop
  endfacet
  facet normal 0.000000e+00 0.000000e+00 1.000000e+00
    outer loop
      vertex   7.745000e+01 5.545000e+01 3.200000e+00
      vertex   7.920000e+01 5.545000e+01 3.200000e+00
      vertex   7.745000e+01 6.600000e+01 3.200000e+00
    endloop
  endfacet
  facet normal -0.000000e+00 0.000000e+00 1.000000e+00
    outer loop
      vertex   7.745000e+01 6.600000e+01 3.200000e+00
      vertex   7.920000e+01 5.545000e+01 3.200000e+00
      vertex   7.920000e+01 6.600000e+01 3.200000e+00
    endloop
  endfacet
  facet normal -2.537653e-16 2.050932e-30 1.000000e+00
    outer loop
      vertex   3.500000e+01 5.545000e+01 3.200000e+00
      vertex   3.675000e+01 5.545000e+01 3.200000e+00
      vertex   3.500000e+01 6.600000e+01 3.200000e+00
    endloop
  endfacet
  facet normal -2.537653e-16 -1.709110e-31 1.000000e+00
    outer loop
      vertex   3.500000e+01 6.600000e+01 3.200000e+00
      vertex   3.675000e+01 5.545000e+01 3.200000e+00
      vertex   3.675000e+01 6.600000e+01 3.200000e+00
    endloop
  endfacet
  facet normal -1.000000e+00 -4.440892e-15 0.000000e+00
    outer loop
      vertex   3.675000e+01 0.000000e+00 3.200000e+00
      vertex   3.675000e+01 -1.600000e+00 3.200000e+00
      vertex   3.675000e+01 0.000000e+00 4.800000e+00
    endloop
  endfacet
  facet normal -1.000000e+00 -0.000000e+00 -4.440892e-15
    outer loop
      vertex   3.675000e+01 0.000000e+00 4.800000e+00
      vertex   3.675000e+01 -1.600000e+00 3.200000e+00
      vertex   3.675000e+01 -1.600000e+00 4.800000e+00
    endloop
  endfacet
  facet normal 0.000000e+00 1.000000e+00 -0.000000e+00
    outer loop
      vertex   7.745000e+01 0.000000e+00 3.200000e+00
      vertex   3.675000e+01 0.000000e+00 3.200000e+00
      vertex   7.745000e+01 0.000000e+00 4.800000e+00
    endloop
  endfacet
  facet normal 0.000000e+00 1.000000e+00 0.000000e+00
    outer loop
      vertex   7.745000e+01 0.000000e+00 4.800000e+00
      vertex   3.675000e+01 0.000000e+00 3.200000e+00
      vertex   3.675000e+01 0.000000e+00 4.800000e+00
    endloop
  endfacet
  facet normal 1.000000e+00 0.000000e+00 0.000000e+00
    outer loop
      vertex   7.745000e+01 -1.600000e+00 3.200000e+00
      vertex   7.745000e+01 0.000000e+00 3.200000e+00
      vertex   7.745000e+01 -1.600000e+00 4.800000e+00
    endloop
  endfacet
  facet normal 1.000000e+00 -0.000000e+00 0.000000e+00
    outer loop
      vertex   7.745000e+01 -1.600000e+00 4.800000e+00
      vertex   7.745000e+01 0.000000e+00 3.200000e+00
      vertex   7.745000e+01 0.000000e+00 4.800000e+00
    endloop
  endfacet
  facet normal -1.309354e-16 0.000000e+00 1.000000e+00
    outer loop
      vertex   7.745000e+01 0.000000e+00 4.800000e+00
      vertex   3.675000e+01 0.000000e+00 4.800000e+00
      vertex   7.745000e+01 -1.600000e+00 4.800000e+00
    endloop
  endfacet
  facet normal -1.309354e-16 0.000000e+00 1.000000e+00
    outer loop
      vertex   7.745000e+01 -1.600000e+00 4.800000e+00
      vertex   3.675000e+01 0.000000e+00 4.800000e+00
      vertex   3.675000e+01 -1.600000e+00 4.800000e+00
    endloop
  endfacet
  facet normal -2.537653e-16 0.000000e+00 1.000000e+00
    outer loop
      vertex   3.675000e+01 4.995000e+01 3.200000e+00
      vertex   3.500000e+01 4.995000e+01 3.200000e+00
      vertex   3.675000e+01 4.100000e+01 3.200000e+00
    endloop
  endfacet
  facet normal -2.537653e-16 -3.847569e-31 1.000000e+00
    outer loop
      vertex   3.675000e+01 4.100000e+01 3.200000e+00
      vertex   3.500000e+01 4.995000e+01 3.200000e+00
      vertex   3.500000e+01 -1.600000e+00 3.200000e+00
    endloop
  endfacet
  facet normal -2.537653e-16 -4.397831e-32 1.000000e+00
    outer loop
      vertex   3.675000e+01 4.100000e+01 3.200000e+00
      vertex   3.500000e+01 -1.600000e+00 3.200000e+00
      vertex   3.675000e+01 0.000000e+00 3.200000e+00
    endloop
  endfacet
  facet normal -2.537653e-16 -1.126944e-30 1.000000e+00
    outer loop
      vertex   3.675000e+01 0.000000e+00 3.200000e+00
      vertex   3.500000e+01 -1.600000e+00 3.200000e+00
      vertex   3.675000e+01 -1.600000e+00 3.200000e+00
    endloop
  endfacet
  facet normal -0.000000e+00 0.000000e+00 1.000000e+00
    outer loop
      vertex   3.675000e+01 4.100000e+01 3.200000e+00
      vertex   3.675000e+01 0.000000e+00 3.200000e+00
      vertex   3.755000e+01 4.100000e+01 3.200000e+00
    endloop
  endfacet
  facet normal -1.309354e-16 2.554837e-18 1.000000e+00
    outer loop
      vertex   3.755000e+01 4.100000e+01 3.200000e+00
      vertex   3.675000e+01 0.000000e+00 3.200000e+00
      vertex   7.745000e+01 0.000000e+00 3.200000e+00
    endloop
  endfacet
  facet normal -1.135778e-16 1.944674e-17 1.000000e+00
    outer loop
      vertex   3.755000e+01 4.100000e+01 3.200000e+00
      vertex   7.745000e+01 0.000000e+00 3.200000e+00
      vertex   7.665000e+01 4.100000e+01 3.200000e+00
    endloop
  endfacet
  facet normal -1.110223e-15 0.000000e+00 1.000000e+00
    outer loop
      vertex   7.665000e+01 4.100000e+01 3.200000e+00
      vertex   7.745000e+01 0.000000e+00 3.200000e+00
      vertex   7.745000e+01 4.100000e+01 3.200000e+00
    endloop
  endfacet
  facet normal 0.000000e+00 0.000000e+00 1.000000e+00
    outer loop
      vertex   7.745000e+01 4.100000e+01 3.200000e+00
      vertex   7.745000e+01 0.000000e+00 3.200000e+00
      vertex   7.920000e+01 -1.600000e+00 3.200000e+00
    endloop
  endfacet
  facet normal -0.000000e+00 0.000000e+00 1.000000e+00
    outer loop
      vertex   7.745000e+01 4.100000e+01 3.200000e+00
      vertex   7.920000e+01 -1.600000e+00 3.200000e+00
      vertex   7.920000e+01 4.995000e+01 3.200000e+00
    endloop
  endfacet
  facet normal 0.000000e+00 0.000000e+00 1.000000e+00
    outer loop
      vertex   7.745000e+01 0.000000e+00 3.200000e+00
      vertex   7.745000e+01 -1.600000e+00 3.200000e+00
      vertex   7.920000e+01 -1.600000e+00 3.200000e+00
    endloop
  endfacet
  facet normal 0.000000e+00 0.000000e+00 1.000000e+00
    outer loop
      vertex   7.920000e+01 4.995000e+01 3.200000e+00
      vertex   7.745000e+01 4.995000e+01 3.200000e+00
      vertex   7.745000e+01 4.100000e+01 3.200000e+00
    endloop
  endfacet
  facet normal -1.135778e-16 0.000000e+00 1.000000e+00
    outer loop
      vertex   7.665000e+01 6.425000e+01 3.200000e+00
      vertex   3.755000e+01 6.425000e+01 3.200000e+00
      vertex   7.665000e+01 4.100000e+01 3.200000e+00
    endloop
  endfacet
  facet normal -1.135778e-16 0.000000e+00 1.000000e+00
    outer loop
      vertex   7.665000e+01 4.100000e+01 3.200000e+00
      vertex   3.755000e+01 6.425000e+01 3.200000e+00
      vertex   3.755000e+01 4.100000e+01 3.200000e+00
    endloop
  endfacet
  facet normal 1.522592e-15 -1.000000e+00 0.000000e+00
    outer loop
      vertex   7.920000e+01 -1.600000e+00 3.200000e+00
      vertex   7.745000e+01 -1.600000e+00 3.200000e+00
      vertex   7.920000e+01 -1.600000e+00 1.600000e+00
    endloop
  endfacet
  facet normal 1.560313e-15 -1.000000e+00 4.125829e-17
    outer loop
      vertex   7.920000e+01 -1.600000e+00 1.600000e+00
      vertex   7.745000e+01 -1.600000e+00 3.200000e+00
      vertex   3.675000e+01 -1.600000e+00 3.200000e+00
    endloop
  endfacet
  facet normal 1.607563e-15 -1.000000e+00 1.294842e-15
    outer loop
      vertex   7.920000e+01 -1.600000e+00 1.600000e+00
      vertex   3.675000e+01 -1.600000e+00 3.200000e+00
      vertex   3.500000e+01 -1.600000e+00 1.600000e+00
    endloop
  endfacet
  facet normal 1.522592e-15 -1.000000e+00 1.387779e-15
    outer loop
      vertex   3.500000e+01 -1.600000e+00 1.600000e+00
      vertex   3.675000e+01 -1.600000e+00 3.200000e+00
      vertex   3.500000e+01 -1.600000e+00 3.200000e+00
    endloop
  endfacet
  facet normal 1.560313e-15 -1.000000e+00 0.000000e+00
    outer loop
      vertex   7.745000e+01 -1.600000e+00 4.800000e+00
      vertex   3.675000e+01 -1.600000e+00 4.800000e+00
      vertex   7.745000e+01 -1.600000e+00 3.200000e+00
    endloop
  endfacet
  facet normal 1.560313e-15 -1.000000e+00 6.202346e-30
    outer loop
      vertex   7.745000e+01 -1.600000e+00 3.200000e+00
      vertex   3.675000e+01 -1.600000e+00 4.800000e+00
      vertex   3.675000e+01 -1.600000e+00 3.200000e+00
    endloop
  endfacet
  facet normal 1.000000e+00 -8.270139e-16 0.000000e+00
    outer loop
      vertex   7.920000e+01 -1.600000e+00 3.200000e+00
      vertex   7.920000e+01 -1.600000e+00 1.600000e+00
      vertex   7.920000e+01 4.995000e+01 3.200000e+00
    endloop
  endfacet
  facet normal 1.000000e+00 0.000000e+00 -2.664535e-14
    outer loop
      vertex   7.920000e+01 4.995000e+01 3.200000e+00
      vertex   7.920000e+01 -1.600000e+00 1.600000e+00
      vertex   7.920000e+01 6.600000e+01 1.600000e+00
    endloop
  endfacet
  facet normal 1.000000e+00 -2.583792e-15 -5.256401e-14
    outer loop
      vertex   7.920000e+01 4.995000e+01 3.200000e+00
      vertex   7.920000e+01 6.600000e+01 1.600000e+00
      vertex   7.920000e+01 5.545000e+01 3.200000e+00
    endloop
  endfacet
  facet normal 1.000000e+00 5.388002e-15 0.000000e+00
    outer loop
      vertex   7.920000e+01 5.545000e+01 3.200000e+00
      vertex   7.920000e+01 6.600000e+01 1.600000e+00
      vertex   7.920000e+01 6.600000e+01 3.200000e+00
    endloop
  endfacet
  facet normal 1.000000e+00 -2.583792e-15 0.000000e+00
    outer loop
      vertex   7.920000e+01 5.545000e+01 4.800000e+00
      vertex   7.920000e+01 4.995000e+01 4.800000e+00
      vertex   7.920000e+01 5.545000e+01 3.200000e+00
    endloop
  endfacet
  facet normal 1.000000e+00 -2.583792e-15 0.000000e+00
    outer loop
      vertex   7.920000e+01 5.545000e+01 3.200000e+00
      vertex   7.920000e+01 4.995000e+01 4.800000e+00
      vertex   7.920000e+01 4.995000e+01 3.200000e+00
    endloop
  endfacet
  facet normal -0.000000e+00 1.000000e+00 0.000000e+00
    outer loop
      vertex   3.500000e+01 6.600000e+01 3.200000e+00
      vertex   3.675000e+01 6.600000e+01 3.200000e+00
      vertex   3.500000e+01 6.600000e+01 1.600000e+00
    endloop
  endfacet
  facet normal 0.000000e+00 1.000000e+00 0.000000e+00
    outer loop
      vertex   3.500000e+01 6.600000e+01 1.600000e+00
      vertex   3.675000e+01 6.600000e+01 3.200000e+00
      vertex   7.745000e+01 6.600000e+01 3.200000e+00
    endloop
  endfacet
  facet normal 0.000000e+00 1.000000e+00 0.000000e+00
    outer loop
      vertex   3.500000e+01 6.600000e+01 1.600000e+00
      vertex   7.745000e+01 6.600000e+01 3.200000e+00
      vertex   7.920000e+01 6.600000e+01 1.600000e+00
    endloop
  endfacet
  facet normal 0.000000e+00 1.000000e+00 -0.000000e+00
    outer loop
      vertex   7.920000e+01 6.600000e+01 1.600000e+00
      vertex   7.745000e+01 6.600000e+01 3.200000e+00
      vertex   7.920000e+01 6.600000e+01 3.200000e+00
    endloop
  endfacet
  facet normal -0.000000e+00 1.000000e+00 0.000000e+00
    outer loop
      vertex   3.675000e+01 6.600000e+01 4.800000e+00
      vertex   7.745000e+01 6.600000e+01 4.800000e+00
      vertex   3.675000e+01 6.600000e+01 3.200000e+00
    endloop
  endfacet
  facet normal 0.000000e+00 1.000000e+00 0.000000e+00
    outer loop
      vertex   3.675000e+01 6.600000e+01 3.200000e+00
      vertex   7.745000e+01 6.600000e+01 4.800000e+00
      vertex   7.745000e+01 6.600000e+01 3.200000e+00
    endloop
  endfacet
  facet normal 1.205672e-16 0.000000e+00 -1.000000e+00
    outer loop
      vertex   3.500000e+01 6.600000e+01 1.600000e+00
      vertex   7.920000e+01 6.600000e+01 1.600000e+00
      vertex   3.500000e+01 -1.600000e+00 1.600000e+00
    endloop
  endfacet
  facet normal 1.205672e-16 0.000000e+00 -1.000000e+00
    outer loop
      vertex   3.500000e+01 -1.600000e+00 1.600000e+00
      vertex   7.920000e+01 6.600000e+01 1.600000e+00
      vertex   7.920000e+01 -1.600000e+00 1.600000e+00
    endloop
  endfacet
endsolid
