solid ASCII
  facet normal -7.071068e-01 1.827017e-15 7.071068e-01
    outer loop
      vertex   -4.420000e+01 5.155000e+01 -1.300000e+01
      vertex   -4.400000e+01 5.155000e+01 -1.280000e+01
      vertex   -4.420000e+01 5.705000e+01 -1.300000e+01
    endloop
  endfacet
  facet normal -7.071068e-01 0.000000e+00 7.071068e-01
    outer loop
      vertex   -4.420000e+01 5.705000e+01 -1.300000e+01
      vertex   -4.400000e+01 5.155000e+01 -1.280000e+01
      vertex   -4.400000e+01 5.705000e+01 -1.280000e+01
    endloop
  endfacet
  facet normal -1.000000e+00 2.583792e-15 0.000000e+00
    outer loop
      vertex   -4.420000e+01 5.155000e+01 -1.300000e+01
      vertex   -4.420000e+01 5.705000e+01 -1.300000e+01
      vertex   -4.420000e+01 5.155000e+01 -1.440000e+01
    endloop
  endfacet
  facet normal -1.000000e+00 2.583792e-15 0.000000e+00
    outer loop
      vertex   -4.420000e+01 5.155000e+01 -1.440000e+01
      vertex   -4.420000e+01 5.705000e+01 -1.300000e+01
      vertex   -4.420000e+01 5.705000e+01 -1.440000e+01
    endloop
  endfacet
  facet normal -1.000000e+00 2.583792e-15 -5.845829e-14
    outer loop
      vertex   -4.420000e+01 5.155000e+01 -1.440000e+01
      vertex   -4.420000e+01 5.705000e+01 -1.440000e+01
      vertex   -4.420000e+01 6.760000e+01 -1.600000e+01
    endloop
  endfacet
  facet normal -1.000000e+00 1.144950e-14 0.000000e+00
    outer loop
      vertex   -4.420000e+01 6.760000e+01 -1.600000e+01
      vertex   -4.420000e+01 5.705000e+01 -1.440000e+01
      vertex   -4.420000e+01 6.760000e+01 -1.440000e+01
    endloop
  endfacet
  facet normal -1.000000e+00 3.153296e-15 -5.274545e-14
    outer loop
      vertex   -4.420000e+01 6.760000e+01 -1.600000e+01
      vertex   -4.420000e+01 3.719247e-14 -1.600000e+01
      vertex   -4.420000e+01 5.155000e+01 -1.440000e+01
    endloop
  endfacet
  facet normal -1.000000e+00 1.516192e-15 0.000000e+00
    outer loop
      vertex   -4.420000e+01 5.155000e+01 -1.440000e+01
      vertex   -4.420000e+01 3.719247e-14 -1.600000e+01
      vertex   -4.420000e+01 3.719247e-14 -1.440000e+01
    endloop
  endfacet
  facet normal 0.000000e+00 1.000000e+00 0.000000e+00
    outer loop
      vertex   -4.420000e+01 5.705000e+01 -1.440000e+01
      vertex   -4.420000e+01 5.705000e+01 -1.300000e+01
      vertex   -4.245000e+01 5.705000e+01 -1.440000e+01
    endloop
  endfacet
  facet normal 0.000000e+00 1.000000e+00 0.000000e+00
    outer loop
      vertex   -4.245000e+01 5.705000e+01 -1.440000e+01
      vertex   -4.420000e+01 5.705000e+01 -1.300000e+01
      vertex   -4.400000e+01 5.705000e+01 -1.280000e+01
    endloop
  endfacet
  facet normal 0.000000e+00 1.000000e+00 -0.000000e+00
    outer loop
      vertex   -4.245000e+01 5.705000e+01 -1.440000e+01
      vertex   -4.400000e+01 5.705000e+01 -1.280000e+01
      vertex   -4.245000e+01 5.705000e+01 -1.280000e+01
    endloop
  endfacet
  facet normal 1.000000e+00 -2.977134e-15 0.000000e+00
    outer loop
      vertex   -1.750000e+00 4.260000e+01 -1.440000e+01
      vertex   -1.750000e+00 5.155000e+01 -1.440000e+01
      vertex   -1.750000e+00 4.260000e+01 -1.280000e+01
    endloop
  endfacet
  facet normal 1.000000e+00 -2.977134e-15 0.000000e+00
    outer loop
      vertex   -1.750000e+00 4.260000e+01 -1.280000e+01
      vertex   -1.750000e+00 5.155000e+01 -1.440000e+01
      vertex   -1.750000e+00 5.155000e+01 -1.280000e+01
    endloop
  endfacet
  facet normal -1.776357e-14 -1.000000e+00 0.000000e+00
    outer loop
      vertex   -2.550000e+00 4.260000e+01 -1.440000e+01
      vertex   -1.750000e+00 4.260000e+01 -1.440000e+01
      vertex   -2.550000e+00 4.260000e+01 -1.280000e+01
    endloop
  endfacet
  facet normal -1.776357e-14 -1.000000e+00 0.000000e+00
    outer loop
      vertex   -2.550000e+00 4.260000e+01 -1.280000e+01
      vertex   -1.750000e+00 4.260000e+01 -1.440000e+01
      vertex   -1.750000e+00 4.260000e+01 -1.280000e+01
    endloop
  endfacet
  facet normal -1.000000e+00 3.056098e-15 0.000000e+00
    outer loop
      vertex   -2.550000e+00 6.585000e+01 -1.440000e+01
      vertex   -2.550000e+00 4.260000e+01 -1.440000e+01
      vertex   -2.550000e+00 6.585000e+01 -1.280000e+01
    endloop
  endfacet
  facet normal -1.000000e+00 3.056098e-15 0.000000e+00
    outer loop
      vertex   -2.550000e+00 6.585000e+01 -1.280000e+01
      vertex   -2.550000e+00 4.260000e+01 -1.440000e+01
      vertex   -2.550000e+00 4.260000e+01 -1.280000e+01
    endloop
  endfacet
  facet normal -2.907592e-15 -1.000000e+00 -2.582460e-29
    outer loop
      vertex   -4.165000e+01 6.585000e+01 -1.440000e+01
      vertex   -2.550000e+00 6.585000e+01 -1.440000e+01
      vertex   -4.165000e+01 6.585000e+01 -1.280000e+01
    endloop
  endfacet
  facet normal -2.907592e-15 -1.000000e+00 0.000000e+00
    outer loop
      vertex   -4.165000e+01 6.585000e+01 -1.280000e+01
      vertex   -2.550000e+00 6.585000e+01 -1.440000e+01
      vertex   -2.550000e+00 6.585000e+01 -1.280000e+01
    endloop
  endfacet
  facet normal 1.000000e+00 -3.667317e-15 0.000000e+00
    outer loop
      vertex   -4.165000e+01 4.260000e+01 -1.440000e+01
      vertex   -4.165000e+01 6.585000e+01 -1.440000e+01
      vertex   -4.165000e+01 4.260000e+01 -1.280000e+01
    endloop
  endfacet
  facet normal 1.000000e+00 -3.056098e-15 8.881784e-15
    outer loop
      vertex   -4.165000e+01 4.260000e+01 -1.280000e+01
      vertex   -4.165000e+01 6.585000e+01 -1.440000e+01
      vertex   -4.165000e+01 6.585000e+01 -1.280000e+01
    endloop
  endfacet
  facet normal -8.881784e-15 -1.000000e+00 0.000000e+00
    outer loop
      vertex   -4.245000e+01 4.260000e+01 -1.440000e+01
      vertex   -4.165000e+01 4.260000e+01 -1.440000e+01
      vertex   -4.245000e+01 4.260000e+01 -1.280000e+01
    endloop
  endfacet
  facet normal -8.881784e-15 -1.000000e+00 0.000000e+00
    outer loop
      vertex   -4.245000e+01 4.260000e+01 -1.280000e+01
      vertex   -4.165000e+01 4.260000e+01 -1.440000e+01
      vertex   -4.165000e+01 4.260000e+01 -1.280000e+01
    endloop
  endfacet
  facet normal -1.000000e+00 3.175610e-15 0.000000e+00
    outer loop
      vertex   -4.245000e+01 5.155000e+01 -1.440000e+01
      vertex   -4.245000e+01 4.260000e+01 -1.440000e+01
      vertex   -4.245000e+01 5.155000e+01 -1.280000e+01
    endloop
  endfacet
  facet normal -1.000000e+00 3.175610e-15 0.000000e+00
    outer loop
      vertex   -4.245000e+01 5.155000e+01 -1.280000e+01
      vertex   -4.245000e+01 4.260000e+01 -1.440000e+01
      vertex   -4.245000e+01 4.260000e+01 -1.280000e+01
    endloop
  endfacet
  facet normal -0.000000e+00 -1.000000e+00 -0.000000e+00
    outer loop
      vertex   -4.245000e+01 5.155000e+01 -1.280000e+01
      vertex   -4.400000e+01 5.155000e+01 -1.280000e+01
      vertex   -4.245000e+01 5.155000e+01 -1.440000e+01
    endloop
  endfacet
  facet normal 0.000000e+00 -1.000000e+00 0.000000e+00
    outer loop
      vertex   -4.245000e+01 5.155000e+01 -1.440000e+01
      vertex   -4.400000e+01 5.155000e+01 -1.280000e+01
      vertex   -4.420000e+01 5.155000e+01 -1.300000e+01
    endloop
  endfacet
  facet normal 0.000000e+00 -1.000000e+00 0.000000e+00
    outer loop
      vertex   -4.245000e+01 5.155000e+01 -1.440000e+01
      vertex   -4.420000e+01 5.155000e+01 -1.300000e+01
      vertex   -4.420000e+01 5.155000e+01 -1.440000e+01
    endloop
  endfacet
  facet normal -1.000000e+00 1.347000e-15 0.000000e+00
    outer loop
      vertex   -4.245000e+01 6.760000e+01 -1.440000e+01
      vertex   -4.245000e+01 5.705000e+01 -1.440000e+01
      vertex   -4.245000e+01 6.760000e+01 -1.280000e+01
    endloop
  endfacet
  facet normal -1.000000e+00 1.347000e-15 0.000000e+00
    outer loop
      vertex   -4.245000e+01 6.760000e+01 -1.280000e+01
      vertex   -4.245000e+01 5.705000e+01 -1.440000e+01
      vertex   -4.245000e+01 5.705000e+01 -1.280000e+01
    endloop
  endfacet
  facet normal 1.000000e+00 -3.367501e-15 0.000000e+00
    outer loop
      vertex   -1.750000e+00 5.705000e+01 -1.440000e+01
      vertex   -1.750000e+00 6.760000e+01 -1.440000e+01
      vertex   -1.750000e+00 5.705000e+01 -1.280000e+01
    endloop
  endfacet
  facet normal 1.000000e+00 -3.367501e-15 0.000000e+00
    outer loop
      vertex   -1.750000e+00 5.705000e+01 -1.280000e+01
      vertex   -1.750000e+00 6.760000e+01 -1.440000e+01
      vertex   -1.750000e+00 6.760000e+01 -1.280000e+01
    endloop
  endfacet
  facet normal 0.000000e+00 1.000000e+00 -0.000000e+00
    outer loop
      vertex   2.220446e-13 5.705000e+01 -1.440000e+01
      vertex   -1.750000e+00 5.705000e+01 -1.440000e+01
      vertex   2.220446e-13 5.705000e+01 -1.280000e+01
    endloop
  endfacet
  facet normal 0.000000e+00 1.000000e+00 0.000000e+00
    outer loop
      vertex   2.220446e-13 5.705000e+01 -1.280000e+01
      vertex   -1.750000e+00 5.705000e+01 -1.440000e+01
      vertex   -1.750000e+00 5.705000e+01 -1.280000e+01
    endloop
  endfacet
  facet normal 4.060244e-15 -1.000000e+00 0.000000e+00
    outer loop
      vertex   -1.750000e+00 5.155000e+01 -1.440000e+01
      vertex   1.953993e-13 5.155000e+01 -1.440000e+01
      vertex   -1.750000e+00 5.155000e+01 -1.280000e+01
    endloop
  endfacet
  facet normal 4.060244e-15 -1.000000e+00 0.000000e+00
    outer loop
      vertex   -1.750000e+00 5.155000e+01 -1.280000e+01
      vertex   1.953993e-13 5.155000e+01 -1.440000e+01
      vertex   1.953993e-13 5.155000e+01 -1.280000e+01
    endloop
  endfacet
  facet normal 0.000000e+00 0.000000e+00 1.000000e+00
    outer loop
      vertex   -4.400000e+01 5.155000e+01 -1.280000e+01
      vertex   -4.245000e+01 5.155000e+01 -1.280000e+01
      vertex   -4.400000e+01 5.705000e+01 -1.280000e+01
    endloop
  endfacet
  facet normal -0.000000e+00 0.000000e+00 1.000000e+00
    outer loop
      vertex   -4.400000e+01 5.705000e+01 -1.280000e+01
      vertex   -4.245000e+01 5.155000e+01 -1.280000e+01
      vertex   -4.245000e+01 5.705000e+01 -1.280000e+01
    endloop
  endfacet
  facet normal -4.440892e-15 1.147434e-29 1.000000e+00
    outer loop
      vertex   -4.245000e+01 5.705000e+01 -1.280000e+01
      vertex   -4.245000e+01 5.155000e+01 -1.280000e+01
      vertex   -4.165000e+01 6.585000e+01 -1.280000e+01
    endloop
  endfacet
  facet normal -4.440892e-15 5.981884e-30 1.000000e+00
    outer loop
      vertex   -4.245000e+01 5.705000e+01 -1.280000e+01
      vertex   -4.165000e+01 6.585000e+01 -1.280000e+01
      vertex   -4.245000e+01 6.760000e+01 -1.280000e+01
    endloop
  endfacet
  facet normal -9.086224e-17 1.988585e-15 1.000000e+00
    outer loop
      vertex   -4.245000e+01 6.760000e+01 -1.280000e+01
      vertex   -4.165000e+01 6.585000e+01 -1.280000e+01
      vertex   -2.550000e+00 6.585000e+01 -1.280000e+01
    endloop
  endfacet
  facet normal -1.745805e-16 7.980824e-17 1.000000e+00
    outer loop
      vertex   -4.245000e+01 6.760000e+01 -1.280000e+01
      vertex   -2.550000e+00 6.585000e+01 -1.280000e+01
      vertex   -1.750000e+00 6.760000e+01 -1.280000e+01
    endloop
  endfacet
  facet normal 0.000000e+00 0.000000e+00 1.000000e+00
    outer loop
      vertex   -1.750000e+00 6.760000e+01 -1.280000e+01
      vertex   -2.550000e+00 6.585000e+01 -1.280000e+01
      vertex   -1.750000e+00 5.705000e+01 -1.280000e+01
    endloop
  endfacet
  facet normal 0.000000e+00 0.000000e+00 1.000000e+00
    outer loop
      vertex   -1.750000e+00 5.705000e+01 -1.280000e+01
      vertex   -2.550000e+00 6.585000e+01 -1.280000e+01
      vertex   -1.750000e+00 5.155000e+01 -1.280000e+01
    endloop
  endfacet
  facet normal 0.000000e+00 0.000000e+00 1.000000e+00
    outer loop
      vertex   -1.750000e+00 5.705000e+01 -1.280000e+01
      vertex   -1.750000e+00 5.155000e+01 -1.280000e+01
      vertex   1.953993e-13 5.155000e+01 -1.280000e+01
    endloop
  endfacet
  facet normal -4.440892e-15 1.410254e-29 1.000000e+00
    outer loop
      vertex   -4.245000e+01 4.260000e+01 -1.280000e+01
      vertex   -4.165000e+01 4.260000e+01 -1.280000e+01
      vertex   -4.245000e+01 5.155000e+01 -1.280000e+01
    endloop
  endfacet
  facet normal -4.440892e-15 1.357180e-29 1.000000e+00
    outer loop
      vertex   -4.245000e+01 5.155000e+01 -1.280000e+01
      vertex   -4.165000e+01 4.260000e+01 -1.280000e+01
      vertex   -4.165000e+01 6.585000e+01 -1.280000e+01
    endloop
  endfacet
  facet normal 0.000000e+00 0.000000e+00 1.000000e+00
    outer loop
      vertex   -2.550000e+00 6.585000e+01 -1.280000e+01
      vertex   -2.550000e+00 4.260000e+01 -1.280000e+01
      vertex   -1.750000e+00 5.155000e+01 -1.280000e+01
    endloop
  endfacet
  facet normal 0.000000e+00 0.000000e+00 1.000000e+00
    outer loop
      vertex   -1.750000e+00 5.155000e+01 -1.280000e+01
      vertex   -2.550000e+00 4.260000e+01 -1.280000e+01
      vertex   -1.750000e+00 4.260000e+01 -1.280000e+01
    endloop
  endfacet
  facet normal 0.000000e+00 -0.000000e+00 1.000000e+00
    outer loop
      vertex   1.953993e-13 5.155000e+01 -1.280000e+01
      vertex   2.220446e-13 5.705000e+01 -1.280000e+01
      vertex   -1.750000e+00 5.705000e+01 -1.280000e+01
    endloop
  endfacet
  facet normal 0.000000e+00 0.000000e+00 1.000000e+00
    outer loop
      vertex   -1.750000e+00 5.705000e+01 -1.440000e+01
      vertex   2.220446e-13 5.705000e+01 -1.440000e+01
      vertex   -1.750000e+00 6.760000e+01 -1.440000e+01
    endloop
  endfacet
  facet normal -0.000000e+00 0.000000e+00 1.000000e+00
    outer loop
      vertex   -1.750000e+00 6.760000e+01 -1.440000e+01
      vertex   2.220446e-13 5.705000e+01 -1.440000e+01
      vertex   2.042810e-13 6.760000e+01 -1.440000e+01
    endloop
  endfacet
  facet normal 0.000000e+00 0.000000e+00 1.000000e+00
    outer loop
      vertex   -4.420000e+01 5.705000e+01 -1.440000e+01
      vertex   -4.245000e+01 5.705000e+01 -1.440000e+01
      vertex   -4.420000e+01 6.760000e+01 -1.440000e+01
    endloop
  endfacet
  facet normal -0.000000e+00 0.000000e+00 1.000000e+00
    outer loop
      vertex   -4.420000e+01 6.760000e+01 -1.440000e+01
      vertex   -4.245000e+01 5.705000e+01 -1.440000e+01
      vertex   -4.245000e+01 6.760000e+01 -1.440000e+01
    endloop
  endfacet
  facet normal -1.000000e+00 0.000000e+00 0.000000e+00
    outer loop
      vertex   -4.245000e+01 1.600000e+00 -1.440000e+01
      vertex   -4.245000e+01 3.469447e-14 -1.440000e+01
      vertex   -4.245000e+01 1.600000e+00 -1.280000e+01
    endloop
  endfacet
  facet normal -1.000000e+00 8.881784e-15 -8.881784e-15
    outer loop
      vertex   -4.245000e+01 1.600000e+00 -1.280000e+01
      vertex   -4.245000e+01 3.469447e-14 -1.440000e+01
      vertex   -4.245000e+01 3.469447e-14 -1.280000e+01
    endloop
  endfacet
  facet normal 3.104260e-15 1.000000e+00 -0.000000e+00
    outer loop
      vertex   -1.750000e+00 1.600000e+00 -1.440000e+01
      vertex   -4.245000e+01 1.600000e+00 -1.440000e+01
      vertex   -1.750000e+00 1.600000e+00 -1.280000e+01
    endloop
  endfacet
  facet normal 3.104260e-15 1.000000e+00 0.000000e+00
    outer loop
      vertex   -1.750000e+00 1.600000e+00 -1.280000e+01
      vertex   -4.245000e+01 1.600000e+00 -1.440000e+01
      vertex   -4.245000e+01 1.600000e+00 -1.280000e+01
    endloop
  endfacet
  facet normal 1.000000e+00 0.000000e+00 0.000000e+00
    outer loop
      vertex   -1.750000e+00 -2.831069e-14 -1.440000e+01
      vertex   -1.750000e+00 1.600000e+00 -1.440000e+01
      vertex   -1.750000e+00 -2.831069e-14 -1.280000e+01
    endloop
  endfacet
  facet normal 1.000000e+00 -0.000000e+00 0.000000e+00
    outer loop
      vertex   -1.750000e+00 -2.831069e-14 -1.280000e+01
      vertex   -1.750000e+00 1.600000e+00 -1.440000e+01
      vertex   -1.750000e+00 1.600000e+00 -1.280000e+01
    endloop
  endfacet
  facet normal -1.745805e-16 0.000000e+00 1.000000e+00
    outer loop
      vertex   -1.750000e+00 1.600000e+00 -1.280000e+01
      vertex   -4.245000e+01 1.600000e+00 -1.280000e+01
      vertex   -1.750000e+00 -2.831069e-14 -1.280000e+01
    endloop
  endfacet
  facet normal -1.745805e-16 1.550587e-30 1.000000e+00
    outer loop
      vertex   -1.750000e+00 -2.831069e-14 -1.280000e+01
      vertex   -4.245000e+01 1.600000e+00 -1.280000e+01
      vertex   -4.245000e+01 3.469447e-14 -1.280000e+01
    endloop
  endfacet
  facet normal 0.000000e+00 0.000000e+00 1.000000e+00
    outer loop
      vertex   -4.245000e+01 5.155000e+01 -1.440000e+01
      vertex   -4.420000e+01 5.155000e+01 -1.440000e+01
      vertex   -4.245000e+01 4.260000e+01 -1.440000e+01
    endloop
  endfacet
  facet normal 0.000000e+00 0.000000e+00 1.000000e+00
    outer loop
      vertex   -4.245000e+01 4.260000e+01 -1.440000e+01
      vertex   -4.420000e+01 5.155000e+01 -1.440000e+01
      vertex   -4.420000e+01 3.719247e-14 -1.440000e+01
    endloop
  endfacet
  facet normal 0.000000e+00 0.000000e+00 1.000000e+00
    outer loop
      vertex   -4.245000e+01 4.260000e+01 -1.440000e+01
      vertex   -4.420000e+01 3.719247e-14 -1.440000e+01
      vertex   -4.245000e+01 1.600000e+00 -1.440000e+01
    endloop
  endfacet
  facet normal 0.000000e+00 0.000000e+00 1.000000e+00
    outer loop
      vertex   -4.245000e+01 1.600000e+00 -1.440000e+01
      vertex   -4.420000e+01 3.719247e-14 -1.440000e+01
      vertex   -4.245000e+01 3.469447e-14 -1.440000e+01
    endloop
  endfacet
  facet normal 0.000000e+00 0.000000e+00 1.000000e+00
    outer loop
      vertex   -4.245000e+01 4.260000e+01 -1.440000e+01
      vertex   -4.245000e+01 1.600000e+00 -1.440000e+01
      vertex   -4.165000e+01 4.260000e+01 -1.440000e+01
    endloop
  endfacet
  facet normal -8.729026e-17 1.703225e-18 1.000000e+00
    outer loop
      vertex   -4.165000e+01 4.260000e+01 -1.440000e+01
      vertex   -4.245000e+01 1.600000e+00 -1.440000e+01
      vertex   -1.750000e+00 1.600000e+00 -1.440000e+01
    endloop
  endfacet
  facet normal -9.086224e-17 -1.772922e-18 1.000000e+00
    outer loop
      vertex   -4.165000e+01 4.260000e+01 -1.440000e+01
      vertex   -1.750000e+00 1.600000e+00 -1.440000e+01
      vertex   -2.550000e+00 4.260000e+01 -1.440000e+01
    endloop
  endfacet
  facet normal 0.000000e+00 0.000000e+00 1.000000e+00
    outer loop
      vertex   -2.550000e+00 4.260000e+01 -1.440000e+01
      vertex   -1.750000e+00 1.600000e+00 -1.440000e+01
      vertex   -1.750000e+00 4.260000e+01 -1.440000e+01
    endloop
  endfacet
  facet normal 0.000000e+00 0.000000e+00 1.000000e+00
    outer loop
      vertex   -1.750000e+00 4.260000e+01 -1.440000e+01
      vertex   -1.750000e+00 1.600000e+00 -1.440000e+01
      vertex   0.000000e+00 -3.108624e-14 -1.440000e+01
    endloop
  endfacet
  facet normal -0.000000e+00 0.000000e+00 1.000000e+00
    outer loop
      vertex   -1.750000e+00 4.260000e+01 -1.440000e+01
      vertex   0.000000e+00 -3.108624e-14 -1.440000e+01
      vertex   1.953993e-13 5.155000e+01 -1.440000e+01
    endloop
  endfacet
  facet normal 0.000000e+00 0.000000e+00 1.000000e+00
    outer loop
      vertex   -1.750000e+00 1.600000e+00 -1.440000e+01
      vertex   -1.750000e+00 -2.831069e-14 -1.440000e+01
      vertex   0.000000e+00 -3.108624e-14 -1.440000e+01
    endloop
  endfacet
  facet normal 0.000000e+00 0.000000e+00 1.000000e+00
    outer loop
      vertex   1.953993e-13 5.155000e+01 -1.440000e+01
      vertex   -1.750000e+00 5.155000e+01 -1.440000e+01
      vertex   -1.750000e+00 4.260000e+01 -1.440000e+01
    endloop
  endfacet
  facet normal -9.086224e-17 2.776839e-31 1.000000e+00
    outer loop
      vertex   -2.550000e+00 6.585000e+01 -1.440000e+01
      vertex   -4.165000e+01 6.585000e+01 -1.440000e+01
      vertex   -2.550000e+00 4.260000e+01 -1.440000e+01
    endloop
  endfacet
  facet normal -9.086224e-17 3.332207e-31 1.000000e+00
    outer loop
      vertex   -2.550000e+00 4.260000e+01 -1.440000e+01
      vertex   -4.165000e+01 6.585000e+01 -1.440000e+01
      vertex   -4.165000e+01 4.260000e+01 -1.440000e+01
    endloop
  endfacet
  facet normal 1.000000e+00 -3.790480e-15 0.000000e+00
    outer loop
      vertex   0.000000e+00 -3.108624e-14 -1.440000e+01
      vertex   0.000000e+00 -3.108624e-14 -1.600000e+01
      vertex   1.953993e-13 5.155000e+01 -1.440000e+01
    endloop
  endfacet
  facet normal 1.000000e+00 -3.021909e-15 -2.476241e-14
    outer loop
      vertex   1.953993e-13 5.155000e+01 -1.440000e+01
      vertex   0.000000e+00 -3.108624e-14 -1.600000e+01
      vertex   2.042810e-13 6.760000e+01 -1.600000e+01
    endloop
  endfacet
  facet normal 1.000000e+00 -4.844610e-15 -4.304637e-14
    outer loop
      vertex   1.953993e-13 5.155000e+01 -1.440000e+01
      vertex   2.042810e-13 6.760000e+01 -1.600000e+01
      vertex   2.220446e-13 5.705000e+01 -1.440000e+01
    endloop
  endfacet
  facet normal 1.000000e+00 1.683751e-15 0.000000e+00
    outer loop
      vertex   2.220446e-13 5.705000e+01 -1.440000e+01
      vertex   2.042810e-13 6.760000e+01 -1.600000e+01
      vertex   2.042810e-13 6.760000e+01 -1.440000e+01
    endloop
  endfacet
  facet normal 1.000000e+00 -4.844610e-15 0.000000e+00
    outer loop
      vertex   2.220446e-13 5.705000e+01 -1.280000e+01
      vertex   1.953993e-13 5.155000e+01 -1.280000e+01
      vertex   2.220446e-13 5.705000e+01 -1.440000e+01
    endloop
  endfacet
  facet normal 1.000000e+00 -4.844610e-15 0.000000e+00
    outer loop
      vertex   2.220446e-13 5.705000e+01 -1.440000e+01
      vertex   1.953993e-13 5.155000e+01 -1.280000e+01
      vertex   1.953993e-13 5.155000e+01 -1.440000e+01
    endloop
  endfacet
  facet normal -0.000000e+00 1.000000e+00 0.000000e+00
    outer loop
      vertex   -4.420000e+01 6.760000e+01 -1.440000e+01
      vertex   -4.245000e+01 6.760000e+01 -1.440000e+01
      vertex   -4.420000e+01 6.760000e+01 -1.600000e+01
    endloop
  endfacet
  facet normal 3.142449e-15 1.000000e+00 -3.437054e-15
    outer loop
      vertex   -4.420000e+01 6.760000e+01 -1.600000e+01
      vertex   -4.245000e+01 6.760000e+01 -1.440000e+01
      vertex   -1.750000e+00 6.760000e+01 -1.440000e+01
    endloop
  endfacet
  facet normal 2.893613e-15 1.000000e+00 3.164889e-15
    outer loop
      vertex   -4.420000e+01 6.760000e+01 -1.600000e+01
      vertex   -1.750000e+00 6.760000e+01 -1.440000e+01
      vertex   2.042810e-13 6.760000e+01 -1.600000e+01
    endloop
  endfacet
  facet normal 0.000000e+00 1.000000e+00 -0.000000e+00
    outer loop
      vertex   2.042810e-13 6.760000e+01 -1.600000e+01
      vertex   -1.750000e+00 6.760000e+01 -1.440000e+01
      vertex   2.042810e-13 6.760000e+01 -1.440000e+01
    endloop
  endfacet
  facet normal 3.142449e-15 1.000000e+00 0.000000e+00
    outer loop
      vertex   -4.245000e+01 6.760000e+01 -1.280000e+01
      vertex   -1.750000e+00 6.760000e+01 -1.280000e+01
      vertex   -4.245000e+01 6.760000e+01 -1.440000e+01
    endloop
  endfacet
  facet normal 3.142449e-15 1.000000e+00 0.000000e+00
    outer loop
      vertex   -4.245000e+01 6.760000e+01 -1.440000e+01
      vertex   -1.750000e+00 6.760000e+01 -1.280000e+01
      vertex   -1.750000e+00 6.760000e+01 -1.440000e+01
    endloop
  endfacet
  facet normal -1.586033e-15 -1.000000e+00 -0.000000e+00
    outer loop
      vertex   0.000000e+00 -3.108624e-14 -1.440000e+01
      vertex   -1.750000e+00 -2.831069e-14 -1.440000e+01
      vertex   0.000000e+00 -3.108624e-14 -1.600000e+01
    endloop
  endfacet
  facet normal -1.548038e-15 -1.000000e+00 4.155664e-17
    outer loop
      vertex   0.000000e+00 -3.108624e-14 -1.600000e+01
      vertex   -1.750000e+00 -2.831069e-14 -1.440000e+01
      vertex   -4.245000e+01 3.469447e-14 -1.440000e+01
    endloop
  endfacet
  facet normal -1.544767e-15 -1.000000e+00 1.283381e-16
    outer loop
      vertex   0.000000e+00 -3.108624e-14 -1.600000e+01
      vertex   -4.245000e+01 3.469447e-14 -1.440000e+01
      vertex   -4.420000e+01 3.719247e-14 -1.600000e+01
    endloop
  endfacet
  facet normal -1.427430e-15 -1.000000e+00 0.000000e+00
    outer loop
      vertex   -4.420000e+01 3.719247e-14 -1.600000e+01
      vertex   -4.245000e+01 3.469447e-14 -1.440000e+01
      vertex   -4.420000e+01 3.719247e-14 -1.440000e+01
    endloop
  endfacet
  facet normal -1.548038e-15 -1.000000e+00 -0.000000e+00
    outer loop
      vertex   -1.750000e+00 -2.831069e-14 -1.280000e+01
      vertex   -4.245000e+01 3.469447e-14 -1.280000e+01
      vertex   -1.750000e+00 -2.831069e-14 -1.440000e+01
    endloop
  endfacet
  facet normal -1.548038e-15 -1.000000e+00 -1.240469e-29
    outer loop
      vertex   -1.750000e+00 -2.831069e-14 -1.440000e+01
      vertex   -4.245000e+01 3.469447e-14 -1.280000e+01
      vertex   -4.245000e+01 3.469447e-14 -1.440000e+01
    endloop
  endfacet
  facet normal 1.607563e-16 -4.857908e-31 -1.000000e+00
    outer loop
      vertex   0.000000e+00 -3.108624e-14 -1.600000e+01
      vertex   -4.420000e+01 3.719247e-14 -1.600000e+01
      vertex   2.042810e-13 6.760000e+01 -1.600000e+01
    endloop
  endfacet
  facet normal 1.607563e-16 -5.069121e-31 -1.000000e+00
    outer loop
      vertex   2.042810e-13 6.760000e+01 -1.600000e+01
      vertex   -4.420000e+01 3.719247e-14 -1.600000e+01
      vertex   -4.420000e+01 6.760000e+01 -1.600000e+01
    endloop
  endfacet
endsolid
